<?xml version="1.0" encoding="utf-8"?>
<!-- Generator: Adobe Illustrator 19.2.1, SVG Export Plug-In . SVG Version: 6.00 Build 0)  -->
<svg version="1.1" id="Capa_1" xmlns="http://www.w3.org/2000/svg" xmlns:xlink="http://www.w3.org/1999/xlink" x="0px" y="0px"
	 viewBox="0 0 530.2 480" style="enable-background:new 0 0 530.2 480;" xml:space="preserve">
<style type="text/css">
	.st0{fill:#0467A8;}
	.st1{fill:#0567A7;}
	.st2{fill:#0667A7;}
	.st3{fill:#0467A7;}
	.st4{fill:#086AA9;}
	.st5{fill:#0367A8;}
	.st6{fill:#0267A8;}
	.st7{fill:#00388D;}
	.st8{fill:#FCFCFC;}
	.st9{fill:#050505;}
</style>
<g>
	<path class="st0" d="M1159.8-487c13.3-17.5,29.9-29.4,51.2-34.3c42.8-9.7,86.2,17.2,96.3,59.9c7,29.5-0.2,56.5-16,81.5
		c-12.3,19.6-28.4,36-45.1,51.8c-24.3,23-50.9,43.2-78.2,62.5c-6.3,4.5-6.6,4.6-13,0.1c-27.3-19.2-54.5-38.6-79.1-61.3
		c-21.8-20.1-42.6-41.3-55-68.8c-11.8-26.2-15.4-53.2-3.4-80.3c11.4-25.8,31.6-41.5,59.3-46.1c33.6-5.6,60.4,6.8,81.3,33.1
		C1158.7-488.3,1159.1-487.8,1159.8-487z M1168.3-359.2c-0.9,0.9-0.8,2.1-0.8,3.3c0,21,0,42,0,63.1c0,1.3-0.3,2.7,1,3.6
		c2.1,0.5,3.3-1.2,4.7-2.2c18.4-13.1,36.3-26.9,52.9-42.3c18.3-17,36.2-34.4,50-55.5c12.5-19,18.5-39.9,15-62.4
		c-3.8-25-18.4-42.5-42.5-50.5c-24.4-8.1-46.4-2-65.3,15.2c-8.3,7.6-14.3,16.9-19.3,27c-0.9,1.7-1.6,3.6-4.2,3.6
		c-2.7,0-3.7-1.6-4.7-3.7c-1.7-3.2-3.4-6.4-5.3-9.5c-14.1-22.9-33.7-36.5-61.6-35.9c-31,0.6-57.6,23.9-59.9,57.6
		c-2.4,35.7,15.5,62.4,39.7,87.2c0.7-14.3,7.5-24.3,19.5-29.4c19-8.1,39-8.3,58.1-0.6C1159.1-385.2,1167.2-374.2,1168.3-359.2z"/>
	<path class="st1" d="M1280-212c-9-8-18.7-12.7-30.5-12.3c-18.1,0.6-33.9,14.5-35.9,32.5c-1.3,11.3-0.1,22.3,6.7,31.9
		c12.9,18,36.9,21.4,54.9,7.7c5.4-4.1,5.4-4.1,8.1,2c0.3,0.6,0.5,1.2,0.7,1.9c4,9.5,4.1,9.7-5.1,14.9c-30.3,17-79.4,6.5-86-40.6
		c-4.5-32.1,10.6-58.1,40.7-66.2c18.4-4.9,35.7-2.4,51.5,8.9c2.2,1.6,1.8,2.8,1.1,4.4C1284.3-222.2,1282.2-217.3,1280-212z"/>
	<path class="st1" d="M869.5-155.5c7.9-22.9,15.4-44.6,22.9-66.3c1.7-5,3.5-10,5.1-15c0.7-2.2,1.6-3.5,4.4-3.4
		c6,0.3,11.9,0.1,18.3,0.1c-7.5,20.5-14.9,40.8-22.3,61.1c-5.6,15.3-11.2,30.7-16.7,46c-1.1,3.2-3.1,4.6-6.4,4.9
		c-15.3,1.1-15.2,1.1-20.4-13.1c-11.8-32.2-23.7-64.3-35.5-96.5c-0.2-0.6-0.3-1.2-0.6-2.3c6.8,0,13.2,0.1,19.7,0
		c3.1-0.1,2.7,2.6,3.2,4.1c8.4,23.9,16.8,47.9,25.1,71.9C867.3-161.6,868.2-159.1,869.5-155.5z"/>
	<path class="st2" d="M1074.3-137.6c-10.3,11.3-22.5,13.8-35.9,10.3c-10.7-2.8-17.8-12.7-17.9-23.6c-0.1-12.6,5.3-20.4,17.1-24.3
		c10.4-3.5,21.2-4.1,32-3.8c3.5,0.1,4.5-0.8,4.1-4.4c-0.9-8.5-7.2-13.7-17.7-13.7c-8.9,0-17.3,2.5-24.9,7.2
		c-2.7,1.7-3.4,0.9-3.5-1.7c0-1,0-2-0.1-3c-1.3-11.1-1.3-11.1,9.2-14.9c10.9-3.9,22-4.8,33.3-2.6c13.8,2.7,22,12.3,22.3,27.1
		c0.4,17.8,0,35.7,0.1,53.5c0,2.7-0.8,3.5-3.4,3.3c-1.8-0.2-3.7,0-5.5,0C1074.7-128.2,1074.7-128.2,1074.3-137.6z M1073.9-156.2
		c0-2.7,0-4.6,0-6.4c0-1.1,0.2-2.6-1.5-2.6c-9,0.3-18.3-1.6-27,2.2c-4.7,2-6.9,7.1-5.9,12.5c1,5.2,5.4,9,10.6,9.5
		c6.7,0.7,12.2-2.1,17.7-5.2C1072.1-148.6,1075.9-151.3,1073.9-156.2z"/>
	<path class="st2" d="M1351-137.3c-10.5,10.9-22.8,13.7-36.4,9.5c-11.5-3.6-18.1-14.7-17.1-27.2c0.9-11.6,9.3-19.6,23.2-22.1
		c8.9-1.6,17.8-2.4,26.8-1.9c3.6,0.2,4.1-1.1,3.6-4.3c-1.6-8.9-6.8-13.4-15.9-14c-10.6-0.6-19.9,2.7-29,8.3c-1.9-5-1.5-10.1-2.6-15
		c-0.3-1.4,0.9-1.9,2-2.4c13.7-6.3,27.6-9.9,42.8-5.9c16,4.2,20.3,13.5,20.8,26.5c0.8,18,0.2,36,0.3,53.9c0,2.6-0.7,3.6-3.4,3.3
		c-1.6-0.2-3.3,0-5,0C1352.1-128.4,1352.1-128.4,1351-137.3z M1351.4-151.3c0.1,0.1,0.3,0.2,0.4,0.2c0.1,0,0.4-0.1,0.4-0.2
		c-0.1-4.6,1.3-9.3-0.8-13.9c-8.8-0.3-17.6-1.3-26.3,0.9c-6.5,1.7-9.5,6.4-8.7,12.5c0.8,5.9,5.8,10.4,11.9,10.6
		C1337.7-140.8,1344.6-145.9,1351.4-151.3z"/>
	<path class="st1" d="M1172.1-152c2.1,4.2,3.8,8.1,6,11.8c1.3,2.2,0.8,3.5-1.1,4.8c-15.6,10.8-32.6,12.4-49.5,4.7
		c-15.9-7.2-21.5-21.7-21.9-38.4c-0.4-15.4,3.9-29,17.3-38c12.7-8.4,26.5-9.2,40-2.2c13.4,6.8,19,18.8,19.5,33.4
		c0.4,11.6,0.1,11.6-11.4,11.6c-14.2,0-28.3,0-42.5,0c-2.9,0-4.4-0.2-3.5,3.9c3.7,16,18.2,21.5,33.4,16.7
		C1163.5-145.2,1167.8-148.4,1172.1-152z M1124.5-177.3c1,1.5,2.6,1.1,4.1,1.1c10.4,0,20.8,0,31.2,0c1.3,0,2.7,0.3,3.7-0.9
		c2.9-7.6-4.2-18.5-13.1-20.2C1136.2-199.9,1126.2-192.2,1124.5-177.3z"/>
	<path class="st1" d="M1505.3-152.2c2.2,4.4,4.1,8.7,6.4,12.6c1.2,2.1-0.1,2.6-1.2,3.5c-5.7,4.4-12.2,7.5-19.3,8.6
		c-38.5,5.9-56.2-20.7-51.9-51.4c2.7-18.9,13.3-30.7,32.4-34.7c19.2-4,39.5,9.6,42.8,29.2c0.9,5.5,0.7,10.9,1,16.4
		c0.2,3.2-0.9,3.9-3.9,3.8c-17.8-0.1-35.6-0.1-53.8-0.1c1.2,9.3,4.7,16.7,13.7,20.2C1484.3-139.1,1495.1-143.5,1505.3-152.2z
		 M1497.4-177.3c0.8-16.1-13.5-25.8-28.1-19c-7,3.3-12.3,12.7-10.7,19.1c0.7,1.2,1.9,1.1,3.1,1.1c10.9,0,21.8,0,32.7,0
		C1495.5-176.2,1496.7-176.1,1497.4-177.3z"/>
	<path class="st3" d="M987.3-213.1c0,2.6,1.9,2.2,3.5,2.2c5,0,9.9,0.2,14.9-0.1c3.2-0.2,4.2,1,3.7,3.9c-0.6,3.6,1.2,7.4-0.9,10.9
		c-4.1-1.3-16.8-1.2-20,0.1c-0.3,0.3-0.7,0.7-1,1c-0.9,0.7-0.9,1.7-0.9,2.7c0,12.6,0,25.2,0,37.8c0,0.6-0.6,1.8,1,1.5
		c3.9,9.7,8.9,11.9,19.1,8.1c1.6-0.6,1.7-0.4,2,1c0.5,2.1,1.3,4,2,6.1c2.4,6.8,2.2,7.2-4.5,9.3c-6.3,1.9-12.9,2.1-19.2,1.2
		c-11.6-1.7-18.2-10.4-18.4-23.4c-0.1-13.5-0.2-27,0.1-40.4c0.1-4.1-1.2-5.3-5-4.7c-1.3,0.2-2.7-0.1-4,0.1c-2.3,0.2-3.5-0.5-3.1-3
		c0.1-0.7,0-1.3,0-2c0-9.3,0-9.4,9.2-9.8c2.7-0.1,2.9-1.3,2.8-3.3c0-5.6,0.1-11.3,0.2-17c4.6,0,9.2,0.1,13.8-0.1c3-0.1,3.9,1,4,4
		C986.7-222.5,985.5-217.7,987.3-213.1z"/>
	<path class="st1" d="M1433.5-194.5c-12.8-2-24,4.2-27.4,15c-0.6,1.8-0.6,3.6-0.6,5.4c0,13.8-0.1,27.6,0,41.4c0,3.2-0.7,4.5-4.1,4.2
		c-3.5-0.3-7-0.3-10.5,0c-3.5,0.3-4.5-0.8-4.4-4.3c0.2-19.8,0.1-39.6,0.1-59.4c0-5.3,0.4-10.7-0.8-15.9c-0.5-2.4,0.3-3.3,2.8-3.1
		c3.3,0.2,6.7,0.4,10,0c4.7-0.7,5.8,1.6,5.8,5.5c0,2.1,0.2,4.2,0.3,7.4c6.4-8,13.3-13.5,22.9-14.5c5.9,0.1,6.5,3.7,6,8.5
		C1433.2-201.1,1433.5-197.8,1433.5-194.5z"/>
	<path class="st4" d="M926.8-169.7c0-12.5,0.1-25-0.1-37.4c0-2.9,0.7-3.8,3.6-3.6c5.2,0.5,12.3-2.2,15.3,1.1c2.6,2.9,0.7,9.8,0.7,15
		c0,20.6-0.1,41.3,0.1,61.9c0,3.8-0.9,4.9-4.6,4.7c-4.8-0.3-11.1,1.6-14-0.8c-2.9-2.5-0.9-9.1-1-13.8
		C926.7-151.7,926.8-160.7,926.8-169.7C926.8-169.7,926.8-169.7,926.8-169.7z"/>
	<path class="st2" d="M936.7-222c-7,0.1-12.1-4.5-12.2-10.9c-0.1-6.5,5-11.2,11.9-11.3c6.9,0,11.9,4.7,11.9,11.2
		C948.4-226.8,943.3-222,936.7-222z"/>
	<path class="st3" d="M987.5-153.2c-1.6,0.4-1-0.9-1-1.5c0-12.6,0-25.2,0-37.8c0-1,0-2,0.9-2.7C987.4-181.2,987.5-167.2,987.5-153.2
		z"/>
	<path class="st3" d="M987.3-213.1c-1.8-4.6-0.6-9.4-0.7-14.1c-0.1-3-1-4.1-4-4c-4.6,0.2-9.2,0.1-13.8,0.1
		c5.8-2.4,11.8-0.7,17.8-0.9c1.4-0.1,1,1.8,1,2.9C987.4-223.8,987.3-218.5,987.3-213.1z"/>
	<path class="st2" d="M1433.5-194.5c0-3.3-0.3-6.7,0.1-9.9c0.5-4.8-0.1-8.4-6-8.5c6.9-0.6,7.1-0.6,6.8,6.2
		C1434.2-202.6,1435.7-198.4,1433.5-194.5z"/>
	<path class="st3" d="M988.4-196.2c3.2-1.3,15.9-1.3,20-0.1C1001.8-196.2,995.1-196.2,988.4-196.2z"/>
	<path class="st5" d="M1168.3-359.2c1.2,7.2,0.5,14.5,0.5,21.8c0,16-0.2,32.1-0.3,48.1c-1.3-0.9-1-2.3-1-3.6c0-21,0-42,0-63.1
		C1167.5-357.1,1167.3-358.2,1168.3-359.2z"/>
	<path class="st1" d="M1351.4-151.3c0-4.6,0-9.2,0-13.8c2.1,4.5,0.7,9.2,0.8,13.9c0,0.1-0.2,0.2-0.4,0.2
		C1351.7-151.1,1351.6-151.2,1351.4-151.3z"/>
	<path class="st1" d="M1124.5-177.3c13,0.1,26,0.1,39,0.2c-1,1.2-2.4,0.9-3.7,0.9c-10.4,0-20.8,0-31.2,0
		C1127.1-176.2,1125.5-175.7,1124.5-177.3z"/>
	<path class="st1" d="M1458.5-177.2c12.9,0,25.9-0.1,38.8-0.1c-0.7,1.3-1.9,1.1-3,1.1c-10.9,0-21.8,0-32.7,0
		C1460.5-176.2,1459.3-176,1458.5-177.2z"/>
	<path class="st6" d="M1190.4-447.4c0.4-1,1.2-0.8,2-0.7c7.3,1.2,14.7,1.8,21.9-0.3c0.1-0.9,0.2-1.9,0.3-2.8c1.4-6.3,1.3-12.7,0-19
		c0.2-3.6,2.6-4.8,5.6-4.9c5.1-0.2,10.3-0.2,15.5,0c3,0.1,5.5,1.2,5.5,4.9c-1.3,6.3-1.4,12.7,0,19c0.1,0.9,0.2,1.9,0.3,2.8
		c7.6,2.2,15.3,1.5,22.9,0.4c3,0.6,3.9,2.6,3.9,5.4c0,5,0,10,0,15c0,5.5-1.5,6.8-7.2,7c-6.6,0.2-13.2-0.7-19.8,0.4
		c-1.7,6.7-1.4,13.4-0.1,20c0,3.6-2.2,4.9-5.4,4.9c-5.3,0.1-10.6,0.1-15.9,0c-3.1-0.1-5.5-1.1-5.4-4.9c1.3-6.7,1.5-13.4-0.1-20
		c0,0,0-0.1,0-0.1c-0.6-2.7-2.8-1.8-4.5-1.9c-6.9-0.5-14,1-20.8-0.9c0,0,0.2,0.2,0.2,0.2c-0.3-0.4-0.6-0.8-1-1.3c0,0,0,0,0,0
		c-0.3-2.7,0.6-5.4-0.6-8c0-0.7,0-1.5,0-2.2c0.9-1.3,0.9-2.5,0-3.8c0-1.1,0-2.1,0-3.2C1188.6-443.3,1189.5-445.3,1190.4-447.4z"/>
	<path class="st5" d="M1115.2-403.2c-16-0.2-27.8-13-27.7-30.1c0.1-15,13.1-27.5,28.4-27.2c15.5,0.2,28.5,13.6,28.3,28.9
		C1143.9-415.5,1131.2-403,1115.2-403.2z"/>
	<path class="st5" d="M1189.1-423c6.9,1.9,13.9,0.4,20.8,0.9c1.7,0.1,3.8-0.8,4.5,1.9c-6.4-1.2-12.9-0.2-19.3-0.6
		C1192.9-420.9,1190.5-420.4,1189.1-423z"/>
	<path class="st5" d="M1264.5-448c-7.7,1.2-15.3,1.8-22.9-0.4C1249.2-448.2,1256.8-448.1,1264.5-448z"/>
	<path class="st5" d="M1214.4-448.3c-7.3,2.1-14.6,1.5-21.9,0.3C1199.8-448.1,1207.1-448.2,1214.4-448.3z"/>
	<path class="st5" d="M1241.3-400.1c-1.2-6.7-1.5-13.4,0.1-20C1241.4-413.5,1241.3-406.8,1241.3-400.1z"/>
	<path class="st5" d="M1214.5-420.1c1.7,6.7,1.5,13.3,0.1,20C1214.6-406.8,1214.5-413.5,1214.5-420.1z"/>
	<path class="st5" d="M1214.7-470.2c1.3,6.3,1.3,12.7,0,19C1214.6-457.5,1214.7-463.8,1214.7-470.2z"/>
	<path class="st5" d="M1241.3-451.1c-1.4-6.3-1.3-12.7,0-19C1241.3-463.8,1241.3-457.5,1241.3-451.1z"/>
	<path class="st5" d="M1190.4-447.4c-0.9,2-1.8,4.1-2.7,6.1C1187.4-443.8,1187.7-446.1,1190.4-447.4z"/>
	<path class="st5" d="M1187.8-432.1c1.3,2.6,0.4,5.3,0.6,8C1186.8-426.6,1187.8-429.4,1187.8-432.1z"/>
	<path class="st5" d="M1187.8-438.1c0.9,1.3,0.9,2.5,0,3.8C1187.8-435.5,1187.8-436.8,1187.8-438.1z"/>
	<path class="st7" d="M1188.3-424.1c0.3,0.4,0.6,0.8,1,1.3C1189-423.2,1188.7-423.7,1188.3-424.1z"/>
</g>
<g>
	<path class="st8" d="M164.5,601.5c13.3-17.5,29.9-29.4,51.2-34.3c42.8-9.7,86.2,17.2,96.3,59.9c7,29.5-0.2,56.5-16,81.5
		c-12.3,19.6-28.4,36-45.1,51.8c-24.3,23-50.9,43.2-78.2,62.5c-6.3,4.5-6.6,4.6-13,0.1c-27.3-19.2-54.5-38.6-79.1-61.3
		c-21.8-20.1-42.6-41.3-55-68.8c-11.8-26.2-15.4-53.2-3.4-80.3c11.4-25.8,31.6-41.5,59.3-46.1c33.6-5.6,60.4,6.8,81.3,33.1
		C163.3,600.2,163.7,600.7,164.5,601.5z M172.9,729.4c-0.9,0.9-0.8,2.1-0.8,3.3c0,21,0,42,0,63.1c0,1.3-0.3,2.7,1,3.6
		c2.1,0.5,3.3-1.2,4.7-2.2c18.4-13.1,36.3-26.9,52.9-42.3c18.3-17,36.2-34.4,50-55.5c12.5-19,18.5-39.9,15-62.4
		c-3.8-25-18.4-42.5-42.5-50.5c-24.4-8.1-46.4-2-65.3,15.2c-8.3,7.6-14.3,16.9-19.3,27c-0.9,1.7-1.6,3.6-4.2,3.6
		c-2.7,0-3.7-1.6-4.7-3.7c-1.7-3.2-3.4-6.4-5.3-9.5c-14.1-22.9-33.7-36.5-61.6-35.9c-31,0.6-57.6,23.9-59.9,57.6
		c-2.4,35.7,15.5,62.4,39.7,87.2c0.7-14.3,7.5-24.3,19.5-29.4c19-8.1,39-8.3,58.1-0.6C163.8,703.3,171.9,714.3,172.9,729.4z"/>
	<path class="st8" d="M284.6,876.5c-9-8-18.7-12.7-30.5-12.3c-18.1,0.6-33.9,14.5-35.9,32.5c-1.3,11.3-0.1,22.3,6.7,31.9
		c12.9,18,36.9,21.4,54.9,7.7c5.4-4.1,5.4-4.1,8.1,2c0.3,0.6,0.5,1.2,0.7,1.9c4,9.5,4.1,9.7-5.1,14.9c-30.3,17-79.4,6.5-86-40.6
		c-4.5-32.1,10.6-58.1,40.7-66.2c18.4-4.9,35.7-2.4,51.5,8.9c2.2,1.6,1.8,2.8,1.1,4.4C288.9,866.4,286.8,871.2,284.6,876.5z"/>
	<path class="st8" d="M-125.8,933c7.9-22.9,15.4-44.6,22.9-66.3c1.7-5,3.5-10,5.1-15c0.7-2.2,1.6-3.5,4.4-3.4
		c6,0.3,11.9,0.1,18.3,0.1c-7.5,20.5-14.9,40.8-22.3,61.1c-5.6,15.3-11.2,30.7-16.7,46c-1.1,3.2-3.1,4.6-6.4,4.9
		c-15.3,1.1-15.2,1.1-20.4-13.1c-11.8-32.2-23.7-64.3-35.5-96.5c-0.2-0.6-0.3-1.2-0.6-2.3c6.8,0,13.2,0.1,19.7,0
		c3.1-0.1,2.7,2.6,3.2,4.1c8.4,23.9,16.8,47.9,25.1,71.9C-128.1,926.9-127.1,929.4-125.8,933z"/>
	<path class="st8" d="M79,951c-10.3,11.3-22.5,13.8-35.9,10.3c-10.7-2.8-17.8-12.7-17.9-23.6c-0.1-12.6,5.3-20.4,17.1-24.3
		c10.4-3.5,21.2-4.1,32-3.8c3.5,0.1,4.5-0.8,4.1-4.4c-0.9-8.5-7.2-13.7-17.7-13.7c-8.9,0-17.3,2.5-24.9,7.2
		c-2.7,1.7-3.4,0.9-3.5-1.7c0-1,0-2-0.1-3c-1.3-11.1-1.3-11.1,9.2-14.9c10.9-3.9,22-4.8,33.3-2.6c13.8,2.7,22,12.3,22.3,27.1
		c0.4,17.8,0,35.7,0.1,53.5c0,2.7-0.8,3.5-3.4,3.3c-1.8-0.2-3.7,0-5.5,0C79.3,960.3,79.3,960.3,79,951z M78.5,932.3
		c0-2.7,0-4.6,0-6.4c0-1.1,0.2-2.6-1.5-2.6c-9,0.3-18.3-1.6-27,2.2c-4.7,2-6.9,7.1-5.9,12.5c1,5.2,5.4,9,10.6,9.5
		c6.7,0.7,12.2-2.1,17.7-5.2C76.7,939.9,80.5,937.3,78.5,932.3z"/>
	<path class="st8" d="M355.6,951.2c-10.5,10.9-22.8,13.7-36.4,9.5c-11.5-3.6-18.1-14.7-17.1-27.2c0.9-11.6,9.3-19.6,23.2-22.1
		c8.9-1.6,17.8-2.4,26.8-1.9c3.6,0.2,4.1-1.1,3.6-4.3c-1.6-8.9-6.8-13.4-15.9-14c-10.6-0.6-19.9,2.7-29,8.3c-1.9-5-1.5-10.1-2.6-15
		c-0.3-1.4,0.9-1.9,2-2.4c13.7-6.3,27.6-9.9,42.8-5.9c16,4.2,20.3,13.5,20.8,26.5c0.8,18,0.2,36,0.3,53.9c0,2.6-0.7,3.6-3.4,3.3
		c-1.6-0.2-3.3,0-5,0C356.7,960.1,356.7,960.1,355.6,951.2z M356,937.3c0.1,0.1,0.3,0.2,0.4,0.2c0.1,0,0.4-0.1,0.4-0.2
		c-0.1-4.6,1.3-9.3-0.8-13.9c-8.8-0.3-17.6-1.3-26.3,0.9c-6.5,1.7-9.5,6.4-8.7,12.5c0.8,5.9,5.8,10.4,11.9,10.6
		C342.3,947.7,349.2,942.7,356,937.3z"/>
	<path class="st8" d="M176.7,936.6c2.1,4.2,3.8,8.1,6,11.8c1.3,2.2,0.8,3.5-1.1,4.8c-15.6,10.8-32.6,12.4-49.5,4.7
		c-15.9-7.2-21.5-21.7-21.9-38.4c-0.4-15.4,3.9-29,17.3-38c12.7-8.4,26.5-9.2,40-2.2c13.4,6.8,19,18.8,19.5,33.4
		c0.4,11.6,0.1,11.6-11.4,11.6c-14.2,0-28.3,0-42.5,0c-2.9,0-4.4-0.2-3.5,3.9c3.7,16,18.2,21.5,33.4,16.7
		C168.2,943.3,172.4,940.1,176.7,936.6z M129.1,911.3c1,1.5,2.6,1.1,4.1,1.1c10.4,0,20.8,0,31.2,0c1.3,0,2.7,0.3,3.7-0.9
		c2.9-7.6-4.2-18.5-13.1-20.2C140.8,888.7,130.8,896.3,129.1,911.3z"/>
	<path class="st8" d="M509.9,936.4c2.2,4.4,4.1,8.7,6.4,12.6c1.2,2.1-0.1,2.6-1.2,3.5c-5.7,4.4-12.2,7.5-19.3,8.6
		c-38.5,5.9-56.2-20.7-51.9-51.4c2.7-18.9,13.3-30.7,32.4-34.7c19.2-4,39.5,9.6,42.8,29.2c0.9,5.5,0.7,10.9,1,16.4
		c0.2,3.2-0.9,3.9-3.9,3.8c-17.8-0.1-35.6-0.1-53.8-0.1c1.2,9.3,4.7,16.7,13.7,20.2C488.9,949.4,499.7,945,509.9,936.4z M502,911.2
		c0.8-16.1-13.5-25.8-28.1-19c-7,3.3-12.3,12.7-10.7,19.1c0.7,1.2,1.9,1.1,3.1,1.1c10.9,0,21.8,0,32.7,0
		C500.1,912.4,501.3,912.5,502,911.2z"/>
	<path class="st8" d="M-8.1,875.4c0,2.6,1.9,2.2,3.5,2.2c5,0,9.9,0.2,14.9-0.1c3.2-0.2,4.2,1,3.7,3.9c-0.6,3.6,1.2,7.4-0.9,10.9
		C9,891-3.7,891-7,892.3c-0.3,0.3-0.7,0.7-1,1c-0.9,0.7-0.9,1.7-0.9,2.7c0,12.6,0,25.2,0,37.8c0,0.6-0.6,1.8,1,1.5
		c3.9,9.7,8.9,11.9,19.1,8.1c1.6-0.6,1.7-0.4,2,1c0.5,2.1,1.3,4,2,6.1c2.4,6.8,2.2,7.2-4.5,9.3c-6.3,1.9-12.9,2.1-19.2,1.2
		c-11.6-1.7-18.2-10.4-18.4-23.4c-0.1-13.5-0.2-27,0.1-40.4c0.1-4.1-1.2-5.3-5-4.7c-1.3,0.2-2.7-0.1-4,0.1c-2.3,0.2-3.5-0.5-3.1-3
		c0.1-0.7,0-1.3,0-2c0-9.3,0-9.4,9.2-9.8c2.7-0.1,2.9-1.3,2.8-3.3c0-5.6,0.1-11.3,0.2-17c4.6,0,9.2,0.1,13.8-0.1c3-0.1,3.9,1,4,4
		C-8.7,866-9.9,870.8-8.1,875.4z"/>
	<path class="st8" d="M438.1,894.1c-12.8-2-24,4.2-27.4,15c-0.6,1.8-0.6,3.6-0.6,5.4c0,13.8-0.1,27.6,0,41.4c0,3.2-0.7,4.5-4.1,4.2
		c-3.5-0.3-7-0.3-10.5,0c-3.5,0.3-4.5-0.8-4.4-4.3c0.2-19.8,0.1-39.6,0.1-59.4c0-5.3,0.4-10.7-0.8-15.9c-0.5-2.4,0.3-3.3,2.8-3.1
		c3.3,0.2,6.7,0.4,10,0c4.7-0.7,5.8,1.6,5.8,5.5c0,2.1,0.2,4.2,0.3,7.4c6.4-8,13.3-13.5,22.9-14.5c5.9,0.1,6.5,3.7,6,8.5
		C437.8,887.4,438.1,890.7,438.1,894.1z"/>
	<path class="st8" d="M-68.6,918.9c0-12.5,0.1-25-0.1-37.4c0-2.9,0.7-3.8,3.6-3.6c5.2,0.5,12.3-2.2,15.3,1.1c2.6,2.9,0.7,9.8,0.7,15
		c0,20.6-0.1,41.3,0.1,61.9c0,3.8-0.9,4.9-4.6,4.7c-4.8-0.3-11.1,1.6-14-0.8c-2.9-2.5-0.9-9.1-1-13.8
		C-68.7,936.9-68.6,927.9-68.6,918.9C-68.6,918.9-68.6,918.9-68.6,918.9z"/>
	<path class="st8" d="M-58.7,866.6c-7,0.1-12.1-4.5-12.2-10.9c-0.1-6.5,5-11.2,11.9-11.3c6.9,0,11.9,4.7,11.9,11.2
		C-47,861.7-52.1,866.5-58.7,866.6z"/>
	<path class="st8" d="M-7.9,935.3c-1.6,0.4-1-0.9-1-1.5c0-12.6,0-25.2,0-37.8c0-1,0-2,0.9-2.7C-8,907.4-7.9,921.3-7.9,935.3z"/>
	<path class="st8" d="M-8.1,875.4c-1.8-4.6-0.6-9.4-0.7-14.1c-0.1-3-1-4.1-4-4c-4.6,0.2-9.2,0.1-13.8,0.1c5.8-2.4,11.8-0.7,17.8-0.9
		c1.4-0.1,1,1.8,1,2.9C-8,864.8-8,870.1-8.1,875.4z"/>
	<path class="st8" d="M438.1,894.1c0-3.3-0.3-6.7,0.1-9.9c0.5-4.8-0.1-8.4-6-8.5c6.9-0.6,7.1-0.6,6.8,6.2
		C438.8,885.9,440.3,890.1,438.1,894.1z"/>
	<path class="st8" d="M-7,892.3c3.2-1.3,15.9-1.3,20-0.1C6.4,892.3-0.3,892.3-7,892.3z"/>
	<path class="st8" d="M172.9,729.4c1.2,7.2,0.5,14.5,0.5,21.8c0,16-0.2,32.1-0.3,48.1c-1.3-0.9-1-2.3-1-3.6c0-21,0-42,0-63.1
		C172.1,731.5,172,730.3,172.9,729.4z"/>
	<path class="st8" d="M356,937.3c0-4.6,0-9.2,0-13.8c2.1,4.5,0.7,9.2,0.8,13.9c0,0.1-0.2,0.2-0.4,0.2
		C356.3,937.5,356.2,937.3,356,937.3z"/>
	<path class="st8" d="M129.1,911.3c13,0.1,26,0.1,39,0.2c-1,1.2-2.4,0.9-3.7,0.9c-10.4,0-20.8,0-31.2,0
		C131.7,912.4,130.1,912.8,129.1,911.3z"/>
	<path class="st8" d="M463.2,911.3c12.9,0,25.9-0.1,38.8-0.1c-0.7,1.3-1.9,1.1-3,1.1c-10.9,0-21.8,0-32.7,0
		C465.1,912.4,463.9,912.5,463.2,911.3z"/>
	<path class="st8" d="M195,641.2c0.4-1,1.2-0.8,2-0.7c7.3,1.2,14.7,1.8,21.9-0.3c0.1-0.9,0.2-1.9,0.3-2.8c1.4-6.3,1.3-12.7,0-19
		c0.2-3.6,2.6-4.8,5.6-4.9c5.1-0.2,10.3-0.2,15.5,0c3,0.1,5.5,1.2,5.5,4.9c-1.3,6.3-1.4,12.7,0,19c0.1,0.9,0.2,1.9,0.3,2.8
		c7.6,2.2,15.3,1.5,22.9,0.4c3,0.6,3.9,2.6,3.9,5.4c0,5,0,10,0,15c0,5.5-1.5,6.8-7.2,7c-6.6,0.2-13.2-0.7-19.8,0.4
		c-1.7,6.7-1.4,13.4-0.1,20c0,3.6-2.2,4.9-5.4,4.9c-5.3,0.1-10.6,0.1-15.9,0c-3.1-0.1-5.5-1.1-5.4-4.9c1.3-6.7,1.5-13.4-0.1-20
		c0,0,0-0.1,0-0.1c-0.6-2.7-2.8-1.8-4.5-1.9c-6.9-0.5-14,1-20.8-0.9c0,0,0.2,0.2,0.2,0.2c-0.3-0.4-0.6-0.8-1-1.3c0,0,0,0,0,0
		c-0.3-2.7,0.6-5.4-0.6-8c0-0.7,0-1.5,0-2.2c0.9-1.3,0.9-2.5,0-3.8c0-1.1,0-2.1,0-3.2C193.3,645.3,194.1,643.2,195,641.2z"/>
	<path class="st8" d="M119.8,685.3c-16-0.2-27.8-13-27.7-30.1c0.1-15,13.1-27.5,28.4-27.2c15.5,0.2,28.5,13.6,28.3,28.9
		C148.5,673,135.8,685.5,119.8,685.3z"/>
	<path class="st8" d="M193.8,665.5c6.9,1.9,13.9,0.4,20.8,0.9c1.7,0.1,3.8-0.8,4.5,1.9c-6.4-1.2-12.9-0.2-19.3-0.6
		C197.5,667.6,195.1,668.1,193.8,665.5z"/>
	<path class="st8" d="M269.1,640.5c-7.7,1.2-15.3,1.8-22.9-0.4C253.8,640.3,261.4,640.4,269.1,640.5z"/>
	<path class="st8" d="M219,640.2c-7.3,2.1-14.6,1.5-21.9,0.3C204.4,640.4,211.7,640.3,219,640.2z"/>
	<path class="st8" d="M245.9,688.4c-1.2-6.7-1.5-13.4,0.1-20C246,675,245.9,681.7,245.9,688.4z"/>
	<path class="st8" d="M219.1,668.4c1.7,6.7,1.5,13.3,0.1,20C219.2,681.7,219.1,675.1,219.1,668.4z"/>
	<path class="st8" d="M219.3,618.4c1.3,6.3,1.3,12.7,0,19C219.3,631,219.3,624.7,219.3,618.4z"/>
	<path class="st8" d="M245.9,637.4c-1.4-6.3-1.3-12.7,0-19C245.9,624.7,245.9,631.1,245.9,637.4z"/>
	<path class="st8" d="M195,641.2c-0.9,2-1.8,4.1-2.7,6.1C192,644.7,192.3,642.4,195,641.2z"/>
	<path class="st8" d="M192.4,656.5c1.3,2.6,0.4,5.3,0.6,8C191.4,661.9,192.4,659.2,192.4,656.5z"/>
	<path class="st8" d="M192.4,650.5c0.9,1.3,0.9,2.5,0,3.8C192.4,653,192.4,651.7,192.4,650.5z"/>
	<path class="st8" d="M193,664.4c0.3,0.4,0.6,0.8,1,1.3C193.6,665.3,193.3,664.9,193,664.4z"/>
</g>
<g>
	<path class="st9" d="M139.3-512.3c13.3-17.5,29.9-29.4,51.2-34.3c42.8-9.7,86.2,17.2,96.3,59.9c7,29.5-0.2,56.5-16,81.5
		c-12.3,19.6-28.4,36-45.1,51.8c-24.3,23-50.9,43.2-78.2,62.5c-6.3,4.5-6.6,4.6-13,0.1c-27.3-19.2-54.5-38.6-79.1-61.3
		C33.7-372,13-393.2,0.5-420.8C-11.3-447-14.9-474-2.9-501.1c11.4-25.8,31.6-41.5,59.3-46.1c33.6-5.6,60.4,6.8,81.3,33.1
		C138.2-513.6,138.6-513.1,139.3-512.3z M147.8-384.4c-0.9,0.9-0.8,2.1-0.8,3.3c0,21,0,42,0,63.1c0,1.3-0.3,2.7,1,3.6
		c2.1,0.5,3.3-1.2,4.7-2.2c18.4-13.1,36.3-26.9,52.9-42.3c18.3-17,36.2-34.4,50-55.5c12.5-19,18.5-39.9,15-62.4
		c-3.8-25-18.4-42.5-42.5-50.5c-24.4-8.1-46.4-2-65.3,15.2c-8.3,7.6-14.3,16.9-19.3,27c-0.9,1.7-1.6,3.6-4.2,3.6
		c-2.7,0-3.7-1.6-4.7-3.7c-1.7-3.2-3.4-6.4-5.3-9.5c-14.1-22.9-33.7-36.5-61.6-35.9c-31,0.6-57.6,23.9-59.9,57.6
		c-2.4,35.7,15.5,62.4,39.7,87.2c0.7-14.3,7.5-24.3,19.5-29.4c19-8.1,39-8.3,58.1-0.6C138.6-410.5,146.8-399.5,147.8-384.4z"/>
	<path class="st9" d="M259.5-237.3c-9-8-18.7-12.7-30.5-12.3c-18.1,0.6-33.9,14.5-35.9,32.5c-1.3,11.3-0.1,22.3,6.7,31.9
		c12.9,18,36.9,21.4,54.9,7.7c5.4-4.1,5.4-4.1,8.1,2c0.3,0.6,0.5,1.2,0.7,1.9c4,9.5,4.1,9.7-5.1,14.9c-30.3,17-79.4,6.5-86-40.6
		c-4.5-32.1,10.6-58.1,40.7-66.2c18.4-4.9,35.7-2.4,51.5,8.9c2.2,1.6,1.8,2.8,1.1,4.4C263.8-247.4,261.7-242.6,259.5-237.3z"/>
	<path class="st9" d="M-151-180.8c7.9-22.9,15.4-44.6,22.9-66.3c1.7-5,3.5-10,5.1-15c0.7-2.2,1.6-3.5,4.4-3.4
		c6,0.3,11.9,0.1,18.3,0.1c-7.5,20.5-14.9,40.8-22.3,61.1c-5.6,15.3-11.2,30.7-16.7,46c-1.1,3.2-3.1,4.6-6.4,4.9
		c-15.3,1.1-15.2,1.1-20.4-13.1c-11.8-32.2-23.7-64.3-35.5-96.5c-0.2-0.6-0.3-1.2-0.6-2.3c6.8,0,13.2,0.1,19.7,0
		c3.1-0.1,2.7,2.6,3.2,4.1c8.4,23.9,16.8,47.9,25.1,71.9C-153.2-186.9-152.3-184.4-151-180.8z"/>
	<path class="st9" d="M53.8-162.8c-10.3,11.3-22.5,13.8-35.9,10.3C7.3-155.3,0.1-165.3,0-176.1c-0.1-12.6,5.3-20.4,17.1-24.3
		c10.4-3.5,21.2-4.1,32-3.8c3.5,0.1,4.5-0.8,4.1-4.4c-0.9-8.5-7.2-13.7-17.7-13.7c-8.9,0-17.3,2.5-24.9,7.2
		c-2.7,1.7-3.4,0.9-3.5-1.7c0-1,0-2-0.1-3C5.6-231,5.6-231,16.2-234.7c10.9-3.9,22-4.8,33.3-2.6c13.8,2.7,22,12.3,22.3,27.1
		c0.4,17.8,0,35.7,0.1,53.5c0,2.7-0.8,3.5-3.4,3.3c-1.8-0.2-3.7,0-5.5,0C54.2-153.5,54.2-153.5,53.8-162.8z M53.4-181.5
		c0-2.7,0-4.6,0-6.4c0-1.1,0.2-2.6-1.5-2.6c-9,0.3-18.3-1.6-27,2.2c-4.7,2-6.9,7.1-5.9,12.5c1,5.2,5.4,9,10.6,9.5
		c6.7,0.7,12.2-2.1,17.7-5.2C51.6-173.9,55.4-176.5,53.4-181.5z"/>
	<path class="st9" d="M330.5-162.6c-10.5,10.9-22.8,13.7-36.4,9.5c-11.5-3.6-18.1-14.7-17.1-27.2c0.9-11.6,9.3-19.6,23.2-22.1
		c8.9-1.6,17.8-2.4,26.8-1.9c3.6,0.2,4.1-1.1,3.6-4.3c-1.6-8.9-6.8-13.4-15.9-14c-10.6-0.6-19.9,2.7-29,8.3c-1.9-5-1.5-10.1-2.6-15
		c-0.3-1.4,0.9-1.9,2-2.4c13.7-6.3,27.6-9.9,42.8-5.9c16,4.2,20.3,13.5,20.8,26.5c0.8,18,0.2,36,0.3,53.9c0,2.6-0.7,3.6-3.4,3.3
		c-1.6-0.2-3.3,0-5,0C331.6-153.7,331.6-153.7,330.5-162.6z M330.9-176.5c0.1,0.1,0.3,0.2,0.4,0.2c0.1,0,0.4-0.1,0.4-0.2
		c-0.1-4.6,1.3-9.3-0.8-13.9c-8.8-0.3-17.6-1.3-26.3,0.9c-6.5,1.7-9.5,6.4-8.7,12.5c0.8,5.9,5.8,10.4,11.9,10.6
		C317.2-166.1,324.1-171.1,330.9-176.5z"/>
	<path class="st9" d="M151.6-177.2c2.1,4.2,3.8,8.1,6,11.8c1.3,2.2,0.8,3.5-1.1,4.8c-15.6,10.8-32.6,12.4-49.5,4.7
		c-15.9-7.2-21.5-21.7-21.9-38.4c-0.4-15.4,3.9-29,17.3-38c12.7-8.4,26.5-9.2,40-2.2c13.4,6.8,19,18.8,19.5,33.4
		c0.4,11.6,0.1,11.6-11.4,11.6c-14.2,0-28.3,0-42.5,0c-2.9,0-4.4-0.2-3.5,3.9c3.7,16,18.2,21.5,33.4,16.7
		C143.1-170.5,147.3-173.7,151.6-177.2z M104-202.5c1,1.5,2.6,1.1,4.1,1.1c10.4,0,20.8,0,31.2,0c1.3,0,2.7,0.3,3.7-0.9
		c2.9-7.6-4.2-18.5-13.1-20.2C115.7-225.1,105.7-217.5,104-202.5z"/>
	<path class="st9" d="M484.8-177.4c2.2,4.4,4.1,8.7,6.4,12.6c1.2,2.1-0.1,2.6-1.2,3.5c-5.7,4.4-12.2,7.5-19.3,8.6
		c-38.5,5.9-56.2-20.7-51.9-51.4c2.7-18.9,13.3-30.7,32.4-34.7c19.2-4,39.5,9.6,42.8,29.2c0.9,5.5,0.7,10.9,1,16.4
		c0.2,3.2-0.9,3.9-3.9,3.8c-17.8-0.1-35.6-0.1-53.8-0.1c1.2,9.3,4.7,16.7,13.7,20.2C463.8-164.4,474.6-168.8,484.8-177.4z
		 M476.9-202.6c0.8-16.1-13.5-25.8-28.1-19c-7,3.3-12.3,12.7-10.7,19.1c0.7,1.2,1.9,1.1,3.1,1.1c10.9,0,21.8,0,32.7,0
		C475-201.5,476.2-201.3,476.9-202.6z"/>
	<path class="st9" d="M-33.2-238.4c0,2.6,1.9,2.2,3.5,2.2c5,0,9.9,0.2,14.9-0.1c3.2-0.2,4.2,1,3.7,3.9c-0.6,3.6,1.2,7.4-0.9,10.9
		c-4.1-1.3-16.8-1.2-20,0.1c-0.3,0.3-0.7,0.7-1,1c-0.9,0.7-0.9,1.7-0.9,2.7c0,12.6,0,25.2,0,37.8c0,0.6-0.6,1.8,1,1.5
		c3.9,9.7,8.9,11.9,19.1,8.1c1.6-0.6,1.7-0.4,2,1c0.5,2.1,1.3,4,2,6.1c2.4,6.8,2.2,7.2-4.5,9.3c-6.3,1.9-12.9,2.1-19.2,1.2
		c-11.6-1.7-18.2-10.4-18.4-23.4c-0.1-13.5-0.2-27,0.1-40.4c0.1-4.1-1.2-5.3-5-4.7c-1.3,0.2-2.7-0.1-4,0.1c-2.3,0.2-3.5-0.5-3.1-3
		c0.1-0.7,0-1.3,0-2c0-9.3,0-9.4,9.2-9.8c2.7-0.1,2.9-1.3,2.8-3.3c0-5.6,0.1-11.3,0.2-17c4.6,0,9.2,0.1,13.8-0.1c3-0.1,3.9,1,4,4
		C-33.8-247.8-35-243-33.2-238.4z"/>
	<path class="st9" d="M413-219.7c-12.8-2-24,4.2-27.4,15c-0.6,1.8-0.6,3.6-0.6,5.4c0,13.8-0.1,27.6,0,41.4c0,3.2-0.7,4.5-4.1,4.2
		c-3.5-0.3-7-0.3-10.5,0c-3.5,0.3-4.5-0.8-4.4-4.3c0.2-19.8,0.1-39.6,0.1-59.4c0-5.3,0.4-10.7-0.8-15.9c-0.5-2.4,0.3-3.3,2.8-3.1
		c3.3,0.2,6.7,0.4,10,0c4.7-0.7,5.8,1.6,5.8,5.5c0,2.1,0.2,4.2,0.3,7.4c6.4-8,13.3-13.5,22.9-14.5c5.9,0.1,6.5,3.7,6,8.5
		C412.7-226.4,413-223.1,413-219.7z"/>
	<path class="st9" d="M-93.7-194.9c0-12.5,0.1-25-0.1-37.4c0-2.9,0.7-3.8,3.6-3.6c5.2,0.5,12.3-2.2,15.3,1.1c2.6,2.9,0.7,9.8,0.7,15
		c0,20.6-0.1,41.3,0.1,61.9c0,3.8-0.9,4.9-4.6,4.7c-4.8-0.3-11.1,1.6-14-0.8c-2.9-2.5-0.9-9.1-1-13.8
		C-93.8-176.9-93.7-185.9-93.7-194.9C-93.7-194.9-93.7-194.9-93.7-194.9z"/>
	<path class="st9" d="M-83.8-247.2c-7,0.1-12.1-4.5-12.2-10.9c-0.1-6.5,5-11.2,11.9-11.3c6.9,0,11.9,4.7,11.9,11.2
		C-72.1-252.1-77.2-247.3-83.8-247.2z"/>
	<path class="st9" d="M-33-178.5c-1.6,0.4-1-0.9-1-1.5c0-12.6,0-25.2,0-37.8c0-1,0-2,0.9-2.7C-33.1-206.4-33-192.5-33-178.5z"/>
	<path class="st9" d="M-33.2-238.4c-1.8-4.6-0.6-9.4-0.7-14.1c-0.1-3-1-4.1-4-4c-4.6,0.2-9.2,0.1-13.8,0.1
		c5.8-2.4,11.8-0.7,17.8-0.9c1.4-0.1,1,1.8,1,2.9C-33.1-249-33.2-243.7-33.2-238.4z"/>
	<path class="st9" d="M413-219.7c0-3.3-0.3-6.7,0.1-9.9c0.5-4.8-0.1-8.4-6-8.5c6.9-0.6,7.1-0.6,6.8,6.2
		C413.7-227.9,415.2-223.7,413-219.7z"/>
	<path class="st9" d="M-32.1-221.5c3.2-1.3,15.9-1.3,20-0.1C-18.7-221.5-25.4-221.5-32.1-221.5z"/>
	<path class="st9" d="M147.8-384.4c1.2,7.2,0.5,14.5,0.5,21.8c0,16-0.2,32.1-0.3,48.1c-1.3-0.9-1-2.3-1-3.6c0-21,0-42,0-63.1
		C147-382.3,146.8-383.5,147.8-384.4z"/>
	<path class="st9" d="M330.9-176.5c0-4.6,0-9.2,0-13.8c2.1,4.5,0.7,9.2,0.8,13.9c0,0.1-0.2,0.2-0.4,0.2
		C331.2-176.3,331.1-176.5,330.9-176.5z"/>
	<path class="st9" d="M104-202.5c13,0.1,26,0.1,39,0.2c-1,1.2-2.4,0.9-3.7,0.9c-10.4,0-20.8,0-31.2,0C106.6-201.4,105-201,104-202.5
		z"/>
	<path class="st9" d="M438-202.5c12.9,0,25.9-0.1,38.8-0.1c-0.7,1.3-1.9,1.1-3,1.1c-10.9,0-21.8,0-32.7,0
		C440-201.5,438.8-201.3,438-202.5z"/>
	<path class="st9" d="M169.9-472.6c0.4-1,1.2-0.8,2-0.7c7.3,1.2,14.7,1.8,21.9-0.3c0.1-0.9,0.2-1.9,0.3-2.8c1.4-6.3,1.3-12.7,0-19
		c0.2-3.6,2.6-4.8,5.6-4.9c5.1-0.2,10.3-0.2,15.5,0c3,0.1,5.5,1.2,5.5,4.9c-1.3,6.3-1.4,12.7,0,19c0.1,0.9,0.2,1.9,0.3,2.8
		c7.6,2.2,15.3,1.5,22.9,0.4c3,0.6,3.9,2.6,3.9,5.4c0,5,0,10,0,15c0,5.5-1.5,6.8-7.2,7c-6.6,0.2-13.2-0.7-19.8,0.4
		c-1.7,6.7-1.4,13.4-0.1,20c0,3.6-2.2,4.9-5.4,4.9c-5.3,0.1-10.6,0.1-15.9,0c-3.1-0.1-5.5-1.1-5.4-4.9c1.3-6.7,1.5-13.4-0.1-20
		c0,0,0-0.1,0-0.1c-0.6-2.7-2.8-1.8-4.5-1.9c-6.9-0.5-14,1-20.8-0.9c0,0,0.2,0.2,0.2,0.2c-0.3-0.4-0.6-0.8-1-1.3c0,0,0,0,0,0
		c-0.3-2.7,0.6-5.4-0.6-8c0-0.7,0-1.5,0-2.2c0.9-1.3,0.9-2.5,0-3.8c0-1.1,0-2.1,0-3.2C168.2-468.6,169-470.6,169.9-472.6z"/>
	<path class="st9" d="M94.7-428.5c-16-0.2-27.8-13-27.7-30.1c0.1-15,13.1-27.5,28.4-27.2c15.5,0.2,28.5,13.6,28.3,28.9
		C123.4-440.8,110.7-428.3,94.7-428.5z"/>
	<path class="st9" d="M168.6-448.3c6.9,1.9,13.9,0.4,20.8,0.9c1.7,0.1,3.8-0.8,4.5,1.9c-6.4-1.2-12.9-0.2-19.3-0.6
		C172.4-446.2,170-445.7,168.6-448.3z"/>
	<path class="st9" d="M244-473.3c-7.7,1.2-15.3,1.8-22.9-0.4C228.7-473.5,236.3-473.4,244-473.3z"/>
	<path class="st9" d="M193.9-473.6c-7.3,2.1-14.6,1.5-21.9,0.3C179.3-473.4,186.6-473.5,193.9-473.6z"/>
	<path class="st9" d="M220.8-425.4c-1.2-6.7-1.5-13.4,0.1-20C220.9-438.8,220.8-432.1,220.8-425.4z"/>
	<path class="st9" d="M194-445.4c1.7,6.7,1.5,13.3,0.1,20C194.1-432.1,194-438.7,194-445.4z"/>
	<path class="st9" d="M194.2-495.4c1.3,6.3,1.3,12.7,0,19C194.2-482.8,194.2-489.1,194.2-495.4z"/>
	<path class="st9" d="M220.8-476.4c-1.4-6.3-1.3-12.7,0-19C220.8-489.1,220.8-482.7,220.8-476.4z"/>
	<path class="st9" d="M169.9-472.6c-0.9,2-1.8,4.1-2.7,6.1C166.9-469.1,167.2-471.4,169.9-472.6z"/>
	<path class="st9" d="M167.3-457.3c1.3,2.6,0.4,5.3,0.6,8C166.3-451.9,167.3-454.7,167.3-457.3z"/>
	<path class="st9" d="M167.3-463.3c0.9,1.3,0.9,2.5,0,3.8C167.3-460.8,167.3-462.1,167.3-463.3z"/>
	<path class="st9" d="M167.9-449.4c0.3,0.4,0.6,0.8,1,1.3C168.5-448.5,168.2-448.9,167.9-449.4z"/>
</g>
<path class="st8" d="M120,5.7c59-10.4,106.2,12.5,142.9,60.8c0.7,0.9,1.5,1.8,2.8,3.4c23.4-32.1,52.5-54,90.1-62.9"/>
<path class="st8" d="M257.5,476.7c-48-35.3-95.8-70.9-139.1-112.5C80,327.4,43.6,288.5,21.7,237.9c-20.8-48.1-27.1-97.7-6-147.5
	C35.7,43.1,71.3,14.3,120,5.7"/>
<path class="st8" d="M355.8,7c75.2-17.8,151.6,31.6,169.3,110c12.2,54.2-0.4,103.7-28.1,149.6c-21.6,35.9-49.9,66.1-79.3,95.1
	c-42.7,42.3-89.5,79.3-137.4,114.8"/>
<path class="st8" d="M280.6,304.6c-1.7,1.7-1.4,3.9-1.4,6c0,38.6,0,77.2,0,115.8c0,2.4-0.6,4.9,1.8,6.7c3.7,0.9,5.8-2.1,8.3-4
	c32.4-24.1,63.9-49.4,93.1-77.6c32.2-31.1,63.6-63.2,87.9-101.8c22-34.9,32.4-73.2,26.4-114.5c-6.7-45.9-32.4-78-74.7-92.6
	c-42.9-14.9-81.6-3.7-114.7,27.9c-14.6,14-25.1,31.1-33.9,49.5c-1.5,3.1-2.8,6.6-7.4,6.6c-4.7,0-6.5-3-8.3-6.7
	c-2.9-5.9-6-11.8-9.3-17.5c-24.8-42.1-59.2-67-108.3-66C85.6,37.6,38.8,80.2,34.8,142.2c-4.2,65.5,27.3,114.6,69.7,160.1
	c1.3-26.2,13.1-44.6,34.3-54.1c33.5-14.9,68.6-15.2,102.1-1.2C264.5,256.8,278.8,276.9,280.6,304.6z"/>
<path class="st8" d="M280.6,304.6c2,13.3,0.8,26.7,0.9,40c0.1,29.5-0.3,58.9-0.5,88.4c-2.3-1.7-1.8-4.3-1.8-6.7
	c0-38.6,0-77.2,0-115.8C279.2,308.4,278.9,306.3,280.6,304.6z"/>
<path class="st8" d="M319.5,142.7c0.8-1.8,2.2-1.4,3.6-1.2c12.9,2.2,25.8,3.3,38.6-0.6c0.2-1.7,0.3-3.5,0.5-5.2
	c2.4-11.6,2.3-23.2,0-34.9c0.4-6.5,4.6-8.7,9.9-8.9c9-0.3,18.1-0.3,27.2,0c5.3,0.2,9.7,2.2,9.7,9c-2.4,11.6-2.4,23.3,0,34.9
	c0.1,1.7,0.3,3.4,0.4,5.1c13.4,4,26.9,2.8,40.3,0.6c5.3,1,6.9,4.8,6.9,9.9c0,9.2,0,18.3,0,27.5c0,10.2-2.6,12.5-12.6,12.8
	c-11.6,0.3-23.3-1.4-34.8,0.8c-3,12.2-2.4,24.5-0.3,36.8c0,6.7-3.9,8.9-9.5,9c-9.3,0.1-18.6,0.2-27.9,0c-5.5-0.1-9.7-2.1-9.5-9
	c2.3-12.3,2.7-24.5-0.2-36.7c0,0,0-0.1,0-0.1c-1.1-4.9-4.9-3.2-7.9-3.5c-12.2-0.9-24.5,1.8-36.6-1.7c0,0,0.3,0.4,0.3,0.4
	c-0.6-0.8-1.1-1.6-1.7-2.3c0,0,0.1,0.1,0.1,0.1c-0.5-4.9,1.1-9.9-1.1-14.7c0-1.3,0-2.7,0-4c1.6-2.3,1.5-4.7,0-7c0-1.9,0-3.9,0-5.8
	C316.4,150.2,317.9,146.4,319.5,142.7z"/>
<path class="st8" d="M187.2,223.7c-28.1-0.3-48.9-23.9-48.7-55.2c0.2-27.6,23.1-50.4,50-50c27.3,0.4,50.2,24.9,49.7,53
	C237.8,201.2,215.4,224,187.2,223.7z"/>
<path class="st8" d="M317.3,187.3c12.1,3.5,24.4,0.8,36.6,1.7c3,0.2,6.8-1.4,7.9,3.5c-11.2-2.3-22.6-0.4-33.9-1
	C323.9,191.3,319.6,192.1,317.3,187.3z"/>
<path class="st8" d="M449.7,141.5c-13.5,2.1-26.9,3.4-40.3-0.6C422.8,141.1,436.2,141.3,449.7,141.5z"/>
<path class="st8" d="M361.6,140.9c-12.8,3.9-25.7,2.7-38.6,0.6C335.9,141.3,348.8,141.1,361.6,140.9z"/>
<path class="st8" d="M408.9,229.4c-2.2-12.3-2.7-24.6,0.3-36.8C409.1,204.8,409,217.1,408.9,229.4z"/>
<path class="st8" d="M361.8,192.6c2.9,12.2,2.6,24.5,0.2,36.7C362,217.1,361.9,204.9,361.8,192.6z"/>
<path class="st8" d="M362.1,100.8c2.3,11.6,2.4,23.2,0,34.9C362.1,124.1,362.1,112.4,362.1,100.8z"/>
<path class="st8" d="M408.9,135.8c-2.4-11.6-2.4-23.3,0-34.9C408.9,112.5,408.9,124.1,408.9,135.8z"/>
<path class="st8" d="M319.5,142.7c-1.6,3.7-3.1,7.5-4.7,11.2C314.2,149.2,314.7,145,319.5,142.7z"/>
<path class="st8" d="M314.8,170.8c2.2,4.7,0.6,9.8,1.1,14.7C313.1,180.8,314.9,175.7,314.8,170.8z"/>
<path class="st8" d="M314.8,159.7c1.5,2.3,1.6,4.7,0,7C314.8,164.4,314.8,162.1,314.8,159.7z"/>
<path class="st8" d="M315.9,185.4c0.6,0.8,1.1,1.6,1.7,2.3C317,186.9,316.4,186.2,315.9,185.4z"/>
</svg>
